<svg fill="#fff" xmlns="http://www.w3.org/2000/svg" width="46" height="46.002"><path d="M32.49 19.004l-8.695 20.068a.883.883 0 0 1-1.695-.352V28.446h-6.91a.884.884 0 0 1-.812-1.236l8.693-20.068a.886.886 0 0 1 1.697.352v10.274h6.91a.884.884 0 0 1 .812 1.236zm-8.607.533a.885.885 0 0 1-.885-.885v-6.891l-6.46 14.916h6.446c.489 0 .885.396.885.885v6.891l6.46-14.916h-6.446zm-.882 26.465C10.318 46.002 0 35.684 0 23.001 0 10.318 10.318 0 23.001 0 35.684 0 46 10.318 46 23.001c0 12.683-10.318 23.001-22.999 23.001zm0-44.233c-11.708 0-21.232 9.526-21.232 21.232 0 11.708 9.524 21.232 21.232 21.232 11.705 0 21.229-9.524 21.229-21.232 0-11.705-9.524-21.232-21.229-21.232z"/></svg>