<svg fill="#fff" xmlns="http://www.w3.org/2000/svg" width="42.999" height="42"><path d="M.999 1.001V2h40v38H2V1.001H.999V2v-.999H0V42h42.999V0H0v1.001h.999z"/><path d="M32.201 28.318l-4.658 5.001a1 1 0 0 0 1.464 1.364l4.658-5.001a1 1 0 1 0-1.464-1.364"/><path d="M27.543 29.682l4.658 5.001a1 1 0 0 0 1.464-1.364l-4.658-5.001a1 1 0 0 0-1.464 1.364M11.249 8.001V9A1.756 1.756 0 0 1 13 10.751a1.756 1.756 0 0 1-1.751 1.751 1.756 1.756 0 0 1-1.751-1.751A1.756 1.756 0 0 1 11.249 9V7a3.75 3.75 0 1 0 .001 7.501 3.75 3.75 0 0 0 0-7.501v1.001zm10.001 0V9a1.752 1.752 0 0 1 1.748 1.751 1.753 1.753 0 0 1-1.748 1.751 1.754 1.754 0 0 1-1.751-1.751A1.754 1.754 0 0 1 21.25 9V7a3.75 3.75 0 1 0-.001 7.499A3.75 3.75 0 0 0 21.25 7v1.001zm9.999 0V9A1.756 1.756 0 0 1 33 10.751a1.756 1.756 0 0 1-1.751 1.751 1.756 1.756 0 0 1-1.751-1.751A1.756 1.756 0 0 1 31.249 9V7a3.75 3.75 0 1 0-.001 7.499A3.75 3.75 0 0 0 31.249 7v1.001zm0 9.999v1.001c.966 0 1.748.782 1.751 1.748a1.756 1.756 0 0 1-1.751 1.751 1.756 1.756 0 0 1-1.751-1.751 1.75 1.75 0 0 1 1.751-1.748v-2a3.749 3.749 0 1 0 0 7.498 3.75 3.75 0 1 0 0-7.498V18zm-20 0v1.001c.966 0 1.748.782 1.751 1.748a1.756 1.756 0 0 1-1.751 1.751 1.756 1.756 0 0 1-1.751-1.751 1.751 1.751 0 0 1 1.751-1.748v-2a3.75 3.75 0 1 0 0 7.496 3.75 3.75 0 0 0 0-7.496V18zm0 10.002V29A1.756 1.756 0 0 1 13 30.751a1.756 1.756 0 0 1-1.751 1.751 1.756 1.756 0 0 1-1.751-1.751A1.756 1.756 0 0 1 11.249 29v-1.999a3.75 3.75 0 1 0 0 7.5 3.75 3.75 0 0 0 0-7.5v1.001z"/></svg>