<?xml version="1.0" encoding="UTF-8"?>
<!-- Generator: Adobe Illustrator 22.0.0, SVG Export Plug-In . SVG Version: 6.00 Build 0)  -->
<svg version="1.1" id="иконка_1_" xmlns="http://www.w3.org/2000/svg" xmlns:xlink="http://www.w3.org/1999/xlink" x="0px" y="0px" viewBox="0 0 18.2 15.8" style="enable-background:new 0 0 18.2 15.8;" xml:space="preserve">
<style type="text/css">
	.st0{fill-rule:evenodd;clip-rule:evenodd;fill:#FFFFFF;}
</style>
<g id="иконка">
	<g>
		<path class="st0" d="M17.7,4.7l0-0.1L15,0.8c0,0-0.1-0.1-0.1-0.1c0,0,0,0,0,0c0,0,0,0,0,0c0,0-0.1,0-0.1,0v0H3.4c0,0-0.1,0-0.1,0    c0,0,0,0,0,0c0,0,0,0,0,0c0,0-0.1,0.1-0.1,0.1L0.5,4.6c0,0,0,0.1,0,0.1c0,0,0,0,0,0c0,0,0,0,0,0c0,0.1,0,0.1,0.1,0.2l8.4,10.3    c0,0,0,0,0.1,0c0,0,0,0,0,0c0,0,0,0,0,0c0,0,0,0,0,0c0,0,0.1,0,0.1,0c0,0,0,0,0.1,0c0,0,0,0,0,0c0,0,0,0,0,0c0,0,0,0,0,0    c0,0,0,0,0,0l8.4-10.3L17.7,4.7C17.7,4.7,17.7,4.7,17.7,4.7C17.7,4.7,17.7,4.7,17.7,4.7z M8.4,1.2L5.1,4.3L3.8,1.2H8.4z M3.4,1.5    l1.2,3H1.2L3.4,1.5z M1.3,5h3.5l3.4,8.5L1.3,5z M16.4,5h0.5L10,13.4l2.5-6.2c0.1-0.1,0-0.3-0.1-0.4c-0.1-0.1-0.3,0-0.4,0.2    l-2.9,7.2L5.3,5H11c0.1,0,0.3-0.1,0.3-0.3c0-0.1-0.1-0.3-0.3-0.3H5.7l3.4-3.1l2.5,2.3c0.1,0.1,0.3,0.1,0.4,0    c0.1-0.1,0.1-0.3,0-0.4L9.8,1.2h4.6l-0.3,0.7c-0.1,0.1,0,0.3,0.1,0.4c0.1,0.1,0.3,0,0.4-0.1l0.3-0.6l2.1,3h-0.6    c-0.1,0-0.3,0.1-0.3,0.3C16.1,4.9,16.3,5,16.4,5z M14.4,4l-0.5-1c0-0.1-0.1-0.1-0.1-0.1c-0.1-0.1-0.3,0-0.4,0.1L13,4l-1,0.5    c0,0-0.1,0.1-0.1,0.1c-0.1,0.1,0,0.3,0.1,0.4l1,0.5l0.5,1c0,0,0.1,0.1,0.1,0.1c0.1,0.1,0.3,0,0.4-0.1l0.5-1l1-0.5    c0,0,0.1-0.1,0.1-0.1c0.1-0.1,0-0.3-0.1-0.4L14.4,4z M14.1,5C14.1,5,14,5.1,14,5.1l-0.3,0.6l-0.3-0.6c0-0.1-0.1-0.1-0.1-0.1    l-0.6-0.3l0.6-0.3c0.1,0,0.1-0.1,0.1-0.1l0.3-0.6L14,4.3c0,0.1,0.1,0.1,0.1,0.1l0.6,0.3L14.1,5z"/>
	</g>
</g>
</svg>