<svg xmlns="http://www.w3.org/2000/svg" width="47" height="47"><path fill="#fff" d="M23.5 4.09a19.42 19.42 0 1 0 19.42 19.42A19.44 19.44 0 0 0 23.5 4.09zm0 37.14a17.72 17.72 0 1 1 17.72-17.72A17.741 17.741 0 0 1 23.5 41.23zm0-41.22A23.5 23.5 0 1 0 47 23.51 23.524 23.524 0 0 0 23.5.01zm0 45.3a21.8 21.8 0 1 1 21.8-21.8 21.825 21.825 0 0 1-21.8 21.8zm9.46-31.26a.851.851 0 0 0-1.2 0l-7.08 7.07a2.626 2.626 0 0 0-2.36 0l-3.93-3.92a.849.849 0 0 0-1.2 1.2l3.92 3.92a2.771 2.771 0 0 0-.27 1.19 2.727 2.727 0 0 0 .27 1.18l-.14.15a.833.833 0 0 0 0 1.2.816.816 0 0 0 .6.25.849.849 0 0 0 .6-.25l.15-.14a2.694 2.694 0 0 0 1.18.27 2.727 2.727 0 0 0 1.18-.27l.15.14a.832.832 0 0 0 .6.25.816.816 0 0 0 .6-.25.833.833 0 0 0 0-1.2l-.14-.15a2.714 2.714 0 0 0 0-2.36l7.07-7.08a.851.851 0 0 0 0-1.2zM23.5 24.47a.965.965 0 1 1 .97-.96.969.969 0 0 1-.97.96zm0-17.94a.849.849 0 0 0-.85.85v1.74a.85.85 0 1 0 1.7 0V7.38a.849.849 0 0 0-.85-.85zm0 30.52a.849.849 0 0 0-.85.85v1.74a.85.85 0 0 0 1.7 0V37.9a.849.849 0 0 0-.85-.85zm-6.46-26.43l-.87-1.5a.849.849 0 1 0-1.47.85l.87 1.5a.857.857 0 0 0 .73.43.821.821 0 0 0 .43-.12.848.848 0 0 0 .31-1.16zM32.3 37.05l-.87-1.5a.839.839 0 0 0-1.16-.31.848.848 0 0 0-.31 1.16l.87 1.5a.84.84 0 0 0 .74.43.813.813 0 0 0 .42-.12.839.839 0 0 0 .31-1.16zM11.46 15.58l-1.5-.87a.849.849 0 1 0-.85 1.47l1.5.87a.849.849 0 1 0 .85-1.47zm26.43 15.26l-1.5-.87a.849.849 0 1 0-.85 1.47l1.5.87a.849.849 0 1 0 .85-1.47zm1.74-8.18h-1.74a.85.85 0 1 0 0 1.7h1.74a.85.85 0 1 0 0-1.7zm-30.52 0H7.37a.85.85 0 0 0 0 1.7h1.74a.85.85 0 0 0 0-1.7zm29.09-7.64a.839.839 0 0 0-1.16-.31l-1.5.87a.849.849 0 0 0 .85 1.47l1.5-.87a.839.839 0 0 0 .31-1.16zM11.77 30.28a.839.839 0 0 0-1.16-.31l-1.5.87a.849.849 0 0 0 .85 1.47l1.5-.87a.839.839 0 0 0 .31-1.16zM31.99 8.81a.839.839 0 0 0-1.16.31l-.87 1.5a.839.839 0 0 0 .31 1.16.813.813 0 0 0 .42.12.861.861 0 0 0 .74-.43l.87-1.5a.839.839 0 0 0-.31-1.16zM16.73 35.24a.839.839 0 0 0-1.16.31l-.87 1.5a.839.839 0 0 0 .31 1.16.813.813 0 0 0 .42.12.84.84 0 0 0 .74-.43l.87-1.5a.848.848 0 0 0-.31-1.16z"/></svg>