<svg xmlns="http://www.w3.org/2000/svg" width="44.812" height="44.84"><path fill="#fff" d="M30.111 13.19a.726.726 0 0 0-1.019.09L14.63 30.64a.725.725 0 0 0 .093 1.02.739.739 0 0 0 .462.17.728.728 0 0 0 .557-.26l14.461-17.36a.725.725 0 0 0-.092-1.02zm12.956 5.11a4.043 4.043 0 0 0-.741-.54 2.3 2.3 0 0 1-.273-.19.766.766 0 0 1-.087-1.01 4.808 4.808 0 0 0 .637-2.56 3.763 3.763 0 0 0-.071-.7h.016a5.783 5.783 0 0 0-3.208-4.4 4.625 4.625 0 0 0-1.921-.48.872.872 0 0 1-.825-.26 1.091 1.091 0 0 1-.184-.75 5.077 5.077 0 0 0-2.057-3.91 5.79 5.79 0 0 0-3.615-1.27 5.1 5.1 0 0 0-1.888.35c-.3.13-.513.25-.669.33a1.5 1.5 0 0 1-.163.09.738.738 0 0 1-.218.02l-.046-.01a.947.947 0 0 1-.783-.69A5.49 5.49 0 0 0 22.44 0h-.119a5.408 5.408 0 0 0-4.7 2.73.713.713 0 0 1-.587.28 1.029 1.029 0 0 1-.37-.08l-.116-.06a3.967 3.967 0 0 0-1-.44 5.293 5.293 0 0 0-1.5-.2h-.008a3.746 3.746 0 0 0-.731.05 5.793 5.793 0 0 0-3.5 1.85 4.933 4.933 0 0 0-1.4 3.41c-.009.14-.018.29-.032.36a.789.789 0 0 1-.786.52h-.143a4.9 4.9 0 0 0-2.434.73 4.63 4.63 0 0 0-1.239 1 5.805 5.805 0 0 0-1.541 4.37 4.3 4.3 0 0 0 .575 1.95 1.445 1.445 0 0 1 .194.48.749.749 0 0 1-.325.7l-.268.16a5.223 5.223 0 0 0-2.357 3.8 5.688 5.688 0 0 0 1.466 4.72 5.494 5.494 0 0 0 .835.68c.652.46.735.54.623 1.03a2.683 2.683 0 0 1-.162.34 4.467 4.467 0 0 0-.59 2.11 5.771 5.771 0 0 0 2.624 5.11 5.16 5.16 0 0 0 2.629.84c.68.07.68.07.892.5a2.206 2.206 0 0 1 .039.4 4.854 4.854 0 0 0 1.251 3.22 5.833 5.833 0 0 0 5.35 1.99 5.044 5.044 0 0 0 1.5-.53 1.558 1.558 0 0 1 .5-.19.972.972 0 0 1 .333.08.713.713 0 0 1 .349.36 4.529 4.529 0 0 0 1.312 1.47 5.614 5.614 0 0 0 3.39 1.11 5.988 5.988 0 0 0 2.316-.47 4.77 4.77 0 0 0 2.351-1.99.93.93 0 0 1 .555-.53 1.872 1.872 0 0 1 .248-.03 1.012 1.012 0 0 1 .428.18c.122.06.251.12.395.19a5.046 5.046 0 0 0 1.247.37 6.558 6.558 0 0 0 .82.05 1.825 1.825 0 0 0 .238-.01v.01l.428-.03h.092v-.01a5.735 5.735 0 0 0 4.857-4.64 5.433 5.433 0 0 0 .053-.75.553.553 0 0 1 .118-.42.783.783 0 0 1 .826-.33l.23-.02a5.255 5.255 0 0 0 3.561-1.85 5.8 5.8 0 0 0 1.428-4.23 4.242 4.242 0 0 0-.582-1.97 1.316 1.316 0 0 1-.187-.47c-.021-.41.019-.44.581-.85a5.185 5.185 0 0 0 2.294-3.37 5.723 5.723 0 0 0-1.624-5.38zm.216 5.07c-.663 3-3.043 2.17-2.9 4.69.153 1.05.678 1.06.767 2.38a4.244 4.244 0 0 1-3.642 4.54 2.321 2.321 0 0 0-2.148.96 2.95 2.95 0 0 0-.413 1.78 4.259 4.259 0 0 1-4 3.45h.006a1.4 1.4 0 0 1-.2.01 4.21 4.21 0 0 1-.586-.04h.012a3.514 3.514 0 0 1-.883-.25 3.1 3.1 0 0 0-1.433-.5 3.056 3.056 0 0 0-.621.07c-1.667.53-1.071 1.73-3.094 2.59a4.626 4.626 0 0 1-1.755.35 4.232 4.232 0 0 1-2.517-.81c-1.2-.91-.743-1.36-1.918-1.99a2.4 2.4 0 0 0-.949-.22c-.823 0-1.283.58-2.231.74a4.168 4.168 0 0 1-.7.06 4.339 4.339 0 0 1-3.3-1.55c-1.326-1.59-.672-2.47-1.108-3.34-.982-1.97-2.273-.74-4.012-1.9a4.334 4.334 0 0 1-1.982-3.83 5.151 5.151 0 0 1 .7-2.11c.483-2.02-1.112-2.39-1.8-3.12a4.23 4.23 0 0 1 .577-6.28l.314-.18a2.219 2.219 0 0 0 .982-2.07c-.157-1.05-.678-1.1-.767-2.38a4.33 4.33 0 0 1 1.225-3.35 4.455 4.455 0 0 1 .867-.68 3.367 3.367 0 0 1 1.683-.52H7.6a2.22 2.22 0 0 0 2.2-1.68c.148-.73-.129-1.79 1.069-3.07a4.34 4.34 0 0 1 2.744-1.42.168.168 0 0 0-.046.01 2.672 2.672 0 0 1 .485-.03 3.514 3.514 0 0 1 1.072.14 3.617 3.617 0 0 1 .9.41 2.436 2.436 0 0 0 1.011.23 2.144 2.144 0 0 0 1.827-.99 3.949 3.949 0 0 1 3.481-2.02h.075a4.017 4.017 0 0 1 3.323 1.63 2.332 2.332 0 0 0 1.9 1.38h.156a3.05 3.05 0 0 0 1.6-.54 3.668 3.668 0 0 1 1.341-.25 4.382 4.382 0 0 1 2.708.96c2.318 1.87.922 3.45 2.17 4.59a2.277 2.277 0 0 0 1.795.65h.011a3.388 3.388 0 0 1 1.294.33 4.354 4.354 0 0 1 2.4 3.29 4.075 4.075 0 0 1 .043.54 3.355 3.355 0 0 1-.423 1.77 2.223 2.223 0 0 0 .315 2.82c.411.36.672.4 1.039.74a4.258 4.258 0 0 1 1.193 4.01zm-25.205-3.11a3.62 3.62 0 1 0-3.615-3.62 3.626 3.626 0 0 0 3.615 3.62zm0-5.79a2.17 2.17 0 1 1-2.169 2.17 2.171 2.171 0 0 1 2.169-2.17zm9.4 10.13a3.615 3.615 0 1 0 3.615 3.61 3.617 3.617 0 0 0-3.615-3.61zm0 5.78a2.17 2.17 0 1 1 2.169-2.17 2.17 2.17 0 0 1-2.169 2.17z"/></svg>