<svg fill="#fff" xmlns="http://www.w3.org/2000/svg" viewBox="0 0 175.349 175.349"><path d="M147.825 23.273C133.898 8.265 114.527 0 93.281 0h-5.766C44.73 0 9.766 34.041 8.222 76.465c-.017.14-.074.268-.074.412v38.501c0 .07.036.133.041.203.215 19.012 7.194 37.295 19.771 51.562a3.495 3.495 0 0 0 3.548 1.063l127.589-34.857a3.503 3.503 0 0 0 2.449-2.441 81.95 81.95 0 0 0 2.755-15.764l2.673-35.701c1.588-21.204-5.214-41.152-19.149-56.17zM15.149 79.84l72.902-12.175c5.932-.988 10.652.103 12.941 2.997 2.287 2.895 2.259 7.735-.075 13.279l-11.412 27.094-74.356.804V79.84zm144.846-.916l-2.673 35.701a74.808 74.808 0 0 1-2.017 12.503L31.802 160.867c-9.869-11.894-15.588-26.622-16.473-42.029l76.547-.825a3.498 3.498 0 0 0 3.187-2.143l12.303-29.21c3.406-8.084 3.093-15.306-.882-20.337-3.975-5.031-10.934-7.003-19.585-5.561L15.487 72.687C18.881 35.905 49.872 7 87.515 7h5.766c19.277 0 36.825 7.472 49.414 21.034 12.595 13.573 18.739 31.647 17.3 50.89z"/><path d="M130.648 77c-7.72 0-14 6.279-14 14s6.28 14 14 14 14-6.279 14-14-6.281-14-14-14zm0 21c-3.86 0-7-3.141-7-7s3.139-7 7-7 7 3.141 7 7-3.14 7-7 7zM94.623 74.526a3.499 3.499 0 0 0-4.949 0l-10.5 10.5a3.499 3.499 0 1 0 4.949 4.949l10.5-10.5a3.499 3.499 0 0 0 0-4.949zm58.975 63.567L42.341 168.472a3.501 3.501 0 0 0 .919 6.877c.304 0 .615-.041.923-.123l111.257-30.379a3.501 3.501 0 0 0 2.456-4.3 3.508 3.508 0 0 0-4.298-2.454z"/></svg>