<svg fill="#fff" xmlns="http://www.w3.org/2000/svg" width="45.233" height="41.197"><path d="M45.209 13.498a.728.728 0 0 0-.428-.489 75.2 75.2 0 0 1-8.164-3.969l.058-.058a.73.73 0 0 0 0-1.034L33.497 4.77a.733.733 0 0 0-.922-.093l-2.002-2.002A9.106 9.106 0 0 0 24.292 0a.733.733 0 0 0-.533 1.25l6.113 6.109-1.348 1.348a.733.733 0 0 0 0 1.036l.109.109-8.942 8.937L1.268.37C1.065.168.763.1.495.2S.041.549.02.834A7.568 7.568 0 0 0 1.636 6.09l.102.13a212.24 212.24 0 0 0 14.257 16.266L.455 38.024a.733.733 0 0 0 0 1.036l1.923 1.923a.734.734 0 0 0 1.036 0l1.96-1.96.007-.007.009-.009 13.547-13.544 5.867 5.867a5.795 5.795 0 0 0 .894 7.031 5.74 5.74 0 0 0 4.093 1.695 5.75 5.75 0 0 0 3.21-.971c.116.475.361.927.733 1.297a2.772 2.772 0 0 0 1.972.817c.745 0 1.446-.291 1.972-.817.528-.526.817-1.227.817-1.972s-.289-1.446-.817-1.972a2.757 2.757 0 0 0-1.194-.705.73.73 0 0 0-1.136-.908l-.21.207-6.104-6.104a2.29 2.29 0 0 1 3.092.128.733.733 0 0 0 1.036-1.036 3.76 3.76 0 0 0-4.719-.48l-5.792-5.79 8.942-8.94.109.109a.724.724 0 0 0 .517.214c.189 0 .375-.07.519-.214l.126-.126a75.44 75.44 0 0 1 3.969 8.162.73.73 0 0 0 1.127.297 40.165 40.165 0 0 0 7.119-7.117.732.732 0 0 0 .13-.637zM35.12 8.465l-2.901 2.901-2.14-2.142 2.901-2.898 2.14 2.139zm-8.73-6.658a7.678 7.678 0 0 1 3.147 1.904l1.993 1.993-.622.622-4.518-4.519zM2.786 5.182a6.123 6.123 0 0 1-1.155-2.379l25.722 25.718-1.641 1.641-6.5-6.497A211.128 211.128 0 0 1 2.886 5.313l-.1-.131zm15.116 19.244L4.865 37.46l-.887-.887L17.02 23.534c.293.298.588.596.882.892zM2.898 39.428l-.888-.887.931-.931.887.887-.93.931zm23.836-2.105a4.324 4.324 0 0 1-.473-5.548l6.023 6.02a4.328 4.328 0 0 1-5.55-.472zm10.297 1.085c0 .354-.137.687-.389.936-.249.251-.582.389-.936.389s-.687-.137-.936-.389a1.325 1.325 0 0 1-.002-1.872l.002-.002a1.327 1.327 0 0 1 2.261.938zm-3.667-1.604l-6.111-6.109.738-.74 6.111 6.111-.738.738zM21.615 20.713l-.887-.887 8.942-8.937.887.885-8.942 8.939zM37.811 19.5a76.663 76.663 0 0 0-3.762-7.594 30.286 30.286 0 0 0 1.681-1.681 77.248 77.248 0 0 0 7.596 3.762 38.835 38.835 0 0 1-5.515 5.513z"/></svg>