<svg fill="#fff" xmlns="http://www.w3.org/2000/svg" width="48.251" height="48.251"><path d="M24.125 48.251C10.821 48.251 0 37.428 0 24.125 0 10.823 10.821 0 24.125 0c13.302 0 24.126 10.823 24.126 24.125 0 13.303-10.823 24.126-24.126 24.126zm0-46.694c-12.446 0-22.57 10.125-22.57 22.568 0 12.446 10.125 22.568 22.57 22.568 12.443 0 22.568-10.122 22.568-22.568 0-12.443-10.124-22.568-22.568-22.568zm17.898 22.568c0 9.871-8.029 17.9-17.898 17.9-9.871 0-17.9-8.029-17.9-17.9 0-.982.084-1.946.237-2.887l-.005-.002.005-.005C7.85 12.734 15.239 6.228 24.125 6.228c8.884 0 16.273 6.507 17.663 15.004 0 .002.002.002.002.005l-.002.002c.152.94.235 1.904.235 2.886zm-2.558 5.583c-1.087-.957-3.981-3.248-6.779-3.248-2.838 0-4.67 2.139-4.67 5.448 0 3.173 1.55 5.99 2.4 7.298a16.416 16.416 0 0 0 9.049-9.498zm-21.632 9.498c.85-1.313 2.4-4.137 2.4-7.298 0-3.308-1.832-5.448-4.668-5.448-2.808 0-5.694 2.291-6.781 3.248a16.416 16.416 0 0 0 9.049 9.498zm6.292-31.423c-7.403 0-13.663 4.952-15.665 11.715 4.405-3.427 10.19-5.49 15.665-5.49 5.476 0 11.258 2.063 15.665 5.487-2.004-6.761-8.264-11.712-15.665-11.712zM40.31 21.984c-4.256-3.967-10.404-6.418-16.185-6.418-5.783 0-11.929 2.451-16.187 6.418a16.287 16.287 0 0 0-.156 2.142c0 1.369.186 2.689.505 3.96 1.485-1.215 4.337-3.182 7.277-3.182 3.664 0 6.225 2.882 6.225 7.005 0 3.348-1.478 6.276-2.451 7.843a16.332 16.332 0 0 0 9.572 0c-.973-1.567-2.451-4.495-2.451-7.843 0-4.123 2.558-7.005 6.225-7.005 2.94 0 5.792 1.965 7.277 3.182.317-1.271.505-2.591.505-3.96a15.951 15.951 0 0 0-.156-2.142zm-16.185 3.699a3.896 3.896 0 0 1-3.892-3.892 3.896 3.896 0 0 1 3.892-3.89 3.896 3.896 0 0 1 3.89 3.89 3.895 3.895 0 0 1-3.89 3.892zm0-6.228a2.338 2.338 0 0 0-2.335 2.335 2.338 2.338 0 0 0 2.335 2.335 2.338 2.338 0 0 0 2.335-2.335 2.338 2.338 0 0 0-2.335-2.335zm22.624-8.269c-1.471-3.681-6.027-8.244-8.965-9.713L38.48.081c3.248 1.625 8.092 6.47 9.715 10.525l-1.446.58zM17.12 22.57v-1.557h1.557v1.557H17.12zm12.453 0v-1.557h1.555v1.557h-1.555zM21.79 45.138v-1.557h1.555v1.557H21.79zm3.113 0v-1.557h1.557v1.557h-1.557zM9.768 48.169c-3.248-1.625-8.09-6.47-9.713-10.525l1.446-.577c1.471 3.678 6.027 8.241 8.963 9.71l-.696 1.392z"/></svg>