<svg xmlns="http://www.w3.org/2000/svg" width="26" height="26"><linearGradient id="a" x1="0%" x2="0%" y1="100%" y2="0%"><stop offset="0%" stop-color="#FF4148"/><stop offset="100%" stop-color="#FF793A"/></linearGradient><circle fill="none" stroke="url(#a)" stroke-linecap="round" cx="13" cy="13" r="12"/><path data-name="Forma 1" fill="url(#a)" d="M18 15.6c0 .2-.1.4-.2.6l-3.2-3.7 3.1-2.9c.1.2.2.5.2.7v5.3zm-5-3.9L16.8 9c-.2-.1.2 0 0 0H9.3c-.3 0 .1-.1 0 0l3.7 2.7zm1.3 2.6L13 13l-1.3 1.3L9.3 17c.2.1-.2 0 0 0h7.5c.2 0-.2.1 0 0l-2.5-2.7zM8.2 9.7c-.1.2-.2.4-.2.7v5.3c0 .2.1.4.2.6l3.2-3.7-3.2-2.9z"/></svg>