<svg xmlns="http://www.w3.org/2000/svg" width="26" height="26"><linearGradient id="a" x1="0%" x2="0%" y1="100%" y2="0%"><stop offset="0%" stop-color="#FF4148"/><stop offset="100%" stop-color="#FF793A"/></linearGradient><circle fill="none" stroke="url(#a)" stroke-linecap="round" cx="13" cy="13" r="12"/><path data-name="Forma 1" fill="url(#a)" d="M14.9 8c-1.7 0-3.1 1.4-3.1 3.1 0 .4.1.7.2 1.1l-4 3.9V18h1.9v-1.1H11v-1.1h1.1l1.7-1.7c.3.1.7.2 1.1.2 1.7 0 3.1-1.4 3.1-3.1S16.6 8 14.9 8zm.6 3.8c-.7 0-1.2-.5-1.2-1.2s.5-1.2 1.2-1.2 1.2.5 1.2 1.2c0 .6-.5 1.2-1.2 1.2z"/></svg>