<svg xmlns="http://www.w3.org/2000/svg" width="26" height="26"><linearGradient id="a" x1="0%" x2="0%" y1="100%" y2="0%"><stop offset="0%" stop-color="#FF4148"/><stop offset="100%" stop-color="#FF793A"/></linearGradient><circle fill="none" stroke="url(#a)" stroke-linecap="round" cx="13" cy="13" r="12"/><path data-name="Forma 1" fill="url(#a)" d="M15.6 18c-1.3 0-2.4-1-2.4-2.3 0-1.3 1.1-2.3 2.4-2.3s2.4 1 2.4 2.3c0 1.3-1.1 2.3-2.4 2.3zm0-3.4c-.7 0-1.2.5-1.2 1.1 0 .6.5 1.1 1.2 1.1s1.2-.5 1.2-1.1c0-.6-.5-1.1-1.2-1.1zm-4.5 2.9c-.1.2-.3.3-.6.3-.1 0-.2 0-.3-.1-.3-.2-.4-.5-.2-.8l4.8-8.3c.2-.3.6-.4.9-.2.3.1.4.4.3.7l-4.9 8.4zm-.7-5c-1.3 0-2.4-1-2.4-2.3S9.1 8 10.4 8s2.4 1 2.4 2.3-1.1 2.2-2.4 2.2zm0-3.4c-.7 0-1.2.5-1.2 1.1s.5 1.1 1.2 1.1 1.2-.5 1.2-1.1-.6-1.1-1.2-1.1z"/></svg>