<svg version="1.1" xmlns="http://www.w3.org/2000/svg" xmlns:xlink="http://www.w3.org/1999/xlink" x="0px" y="0px" viewBox="0 0 18 22" enable-background="new 0 0 18 22" xml:space="preserve">
<path d="M11.1,12.1H5.2V9.8h5.9V8.5H5.2c0-2.2,0.5-3.8,1.5-5c1-1.1,2.5-1.7,4.4-1.7c1,0,2,0.2,3.1,0.5l0.2-1.5
                                        C13.1,0.5,12,0.3,11,0.3c-2.3,0-4.2,0.8-5.6,2.2c-1.3,1.4-2,3.4-2,6H0.7v1.3h2.7v2.3H0.7v1.3h2.7v0.4c0,2.5,0.7,4.4,2.1,5.8
                                        c1.3,1.4,3.2,2.1,5.6,2.1c1.1,0,2.2-0.1,3.3-0.4l-0.2-1.5c-1,0.3-2,0.4-3.1,0.4c-1.9,0-3.4-0.5-4.4-1.7c-1-1.1-1.5-2.8-1.5-4.9v-0.2
                                        h5.9V12.1z"></path>
</svg>