<svg version="1.1" xmlns="http://www.w3.org/2000/svg" xmlns:xlink="http://www.w3.org/1999/xlink" x="0px" y="0px" viewBox="0 0 13 27" enable-background="new 0 0 13 27" xml:space="preserve">
<path d="M10,21.7c-0.9,0.7-2,1.1-3.3,1.1c-1.6,0-2.8-0.4-3.7-1.3c-0.8-0.8-1.3-2-1.3-3.5H0c0,1.9,0.5,3.4,1.6,4.5
                                        c1,1.1,2.5,1.7,4.4,1.8V27h1.5v-2.7c1.7-0.2,3-0.7,4-1.7c1-0.9,1.5-2.2,1.5-3.7c0-1-0.2-1.9-0.6-2.6c-0.3-0.7-0.9-1.3-1.7-1.9
                                        c-0.7-0.5-2-1-3.6-1.6c-1.7-0.6-2.9-1.2-3.6-1.8c-0.7-0.7-1-1.6-1-2.7c0-1.2,0.3-2.1,1.1-2.8c0.8-0.8,1.8-1.1,3.2-1.1
                                        c1.3,0,2.4,0.4,3.2,1.3c0.7,0.9,1.1,2.1,1.1,3.6h1.7c0-1.9-0.4-3.4-1.3-4.5c-1-1.1-2.3-1.8-4-1.9V0H6.1v2.9C4.4,3,3.1,3.6,2.2,4.5
                                        c-1,1-1.5,2.3-1.5,3.8S1.2,11,2.1,12c0.8,0.9,2.3,1.7,4.5,2.4c1.7,0.6,3,1.2,3.6,1.9c0.7,0.7,1.1,1.5,1.1,2.6S10.9,21,10,21.7z"></path>
</svg>