<svg version="1.1" xmlns="http://www.w3.org/2000/svg" xmlns:xlink="http://www.w3.org/1999/xlink" x="0px" y="0px" viewBox="0 0 612 792" enable-background="new 0 0 612 792" xml:space="preserve">
<path d="M560.5,465.4H219.9c32.6-19.9,69.1-37.4,105-54.4c56.9-27,111.3-52.9,149.8-87.3h85.7c8.9,0,16.1-7.2,16.1-16.1
                                        s-7.2-16.1-16.1-16.1H504c0.1-0.2,0.3-0.4,0.5-0.6c38-54.6,42.3-122.2,11.7-180.7C480.6,42.2,405.3,0,319.5,0
                                        c-74.5,0-134.3,21.6-178,64c-6.4,6.2-6.5,16.4-0.3,22.8c6.3,6.3,16.3,6.6,22.8,0.3c37.4-36.4,89.8-55,155.5-55
                                        c73.7,0,138.2,35.6,168.2,93.1c25.3,48.5,21.8,102.3-9.6,147.5c-4.6,6.6-10.1,12.8-16.1,18.8H51.5c-8.9,0-16.1,7.2-16.1,16.1
                                        s7.2,16.1,16.1,16.1h370c-31.7,20.7-70.3,39.2-110.4,58.2c-52.1,24.6-105.6,50.3-148.3,83.5H51.5c-8.9,0-16.1,7.2-16.1,16.1
                                        s7.2,16.1,16.1,16.1h78C88.4,546.7,74.9,610,95.9,667.9C124.4,746,206.1,792,315.4,792c2.9,0,5.7,0,8.5-0.1
                                        c68.6-1.4,124.6-20.2,166.5-55.7c6.8-5.7,7.6-15.9,1.8-22.6c-5.7-6.7-15.8-7.7-22.7-1.9c-36,30.5-85.3,46.7-146.4,48
                                        c-98.4,1.1-173-36.4-197.2-102.9c-20.1-55.2-1-117.1,48.3-159.3h386.1c8.9,0,16.1-7.2,16.1-16.1
                                        C576.6,472.6,569.3,465.4,560.5,465.4z"></path>
</svg>