<svg xmlns="http://www.w3.org/2000/svg" width="25" height="24" viewBox="0 0 792 792"><path d="M650.5 465.4H309.9c32.6-19.9 69.1-37.4 105-54.4 56.9-27 111.3-52.9 149.8-87.3h85.7c8.9 0 16.1-7.2 16.1-16.1 0-8.9-7.2-16.1-16.1-16.1h-56.4c0.1-0.2 0.3-0.4 0.5-0.6 38-54.6 42.3-122.2 11.7-180.7C570.6 42.2 495.2 0 409.5 0c-74.5 0-134.3 21.6-178 64 -6.4 6.2-6.5 16.4-0.3 22.8 6.3 6.3 16.3 6.6 22.8 0.3 37.4-36.4 89.8-55 155.5-55 73.7 0 138.2 35.6 168.2 93.1 25.3 48.5 21.8 102.3-9.6 147.5 -4.6 6.6-10.1 12.8-16.1 18.8H141.5c-8.9 0-16.1 7.2-16.1 16.1 0 8.9 7.2 16.1 16.1 16.1h370c-31.7 20.7-70.3 39.2-110.4 58.2 -52.1 24.6-105.6 50.3-148.3 83.5H141.5c-8.9 0-16.1 7.2-16.1 16.1 0 8.9 7.2 16.1 16.1 16.1h78c-41.2 49.1-54.7 112.4-33.6 170.3C214.3 746 296 792 405.4 792c2.9 0 5.7 0 8.5-0.1 68.6-1.4 124.6-20.2 166.5-55.7 6.8-5.7 7.6-15.9 1.8-22.6 -5.7-6.7-15.8-7.7-22.7-1.9 -36 30.5-85.3 46.7-146.4 48 -98.4 1.1-173-36.4-197.2-102.9 -20.1-55.2-1-117.1 48.3-159.3h386.1c8.9 0 16.1-7.2 16.1-16.1C666.6 472.6 659.3 465.4 650.5 465.4z" fill="rgb(255, 255, 255)"></path></svg>