<svg xmlns="http://www.w3.org/2000/svg" width="18" height="22"><path d="M11.1 12.1L5.2 12.1 5.2 9.8 11.1 9.8 11.1 8.5 5.2 8.5C5.2 6.3 5.7 4.7 6.7 3.5 7.7 2.4 9.2 1.8 11.1 1.8 12.1 1.8 13.1 2 14.2 2.3L14.4 0.8C13.1 0.5 12 0.3 11 0.3 8.7 0.3 6.8 1.1 5.4 2.5 4.1 3.9 3.4 5.9 3.4 8.5L0.7 8.5 0.7 9.8 3.4 9.8 3.4 12.1 0.7 12.1 0.7 13.4 3.4 13.4 3.4 13.8C3.4 16.3 4.1 18.2 5.5 19.6 6.8 21 8.7 21.7 11.1 21.7 12.2 21.7 13.3 21.6 14.4 21.3L14.2 19.8C13.2 20.1 12.2 20.2 11.1 20.2 9.2 20.2 7.7 19.7 6.7 18.5 5.7 17.4 5.2 15.7 5.2 13.6L5.2 13.4 11.1 13.4 11.1 12.1Z" fill="rgb(255, 255, 255)"></path></svg>