<svg xmlns="http://www.w3.org/2000/svg" width="13" height="27"><path d="M10 21.7C9.1 22.4 8 22.8 6.7 22.8 5.1 22.8 3.9 22.4 3 21.5 2.2 20.7 1.7 19.5 1.7 18L0 18C0 19.9 0.5 21.4 1.6 22.5 2.6 23.6 4.1 24.2 6 24.3L6 27 7.5 27 7.5 24.3C9.2 24.1 10.5 23.6 11.5 22.6 12.5 21.7 13 20.4 13 18.9 13 17.9 12.8 17 12.4 16.3 12.1 15.6 11.5 15 10.7 14.4 10 13.9 8.7 13.4 7.1 12.8 5.4 12.2 4.2 11.6 3.5 11 2.8 10.3 2.5 9.4 2.5 8.3 2.5 7.1 2.8 6.2 3.6 5.5 4.4 4.7 5.4 4.4 6.8 4.4 8.1 4.4 9.2 4.8 10 5.7 10.7 6.6 11.1 7.8 11.1 9.3L12.8 9.3C12.8 7.4 12.4 5.9 11.5 4.8 10.5 3.7 9.2 3 7.5 2.9L7.5 0 6.1 0 6.1 2.9C4.4 3 3.1 3.6 2.2 4.5 1.2 5.5 0.7 6.8 0.7 8.3 0.7 9.8 1.2 11 2.1 12 2.9 12.9 4.4 13.7 6.6 14.4 8.3 15 9.6 15.6 10.2 16.3 10.9 17 11.3 17.8 11.3 18.9 11.3 20 10.9 21 10 21.7Z" fill="rgb(255, 255, 255)"></path></svg>